<?xml version="1.0" encoding="utf-8"?>
<!-- Generator: Adobe Illustrator 16.0.0, SVG Export Plug-In . SVG Version: 6.00 Build 0)  -->
<!DOCTYPE svg PUBLIC "-//W3C//DTD SVG 1.1//EN" "http://www.w3.org/Graphics/SVG/1.1/DTD/svg11.dtd">
<svg version="1.1" id="Layer_1" xmlns="http://www.w3.org/2000/svg" xmlns:xlink="http://www.w3.org/1999/xlink" x="0px" y="0px"
	 width="180px" height="60px" viewBox="0 0 180 60" enable-background="new 0 0 180 60" xml:space="preserve">
<g>
	<g>
		<path d="M17.968,16.343h26.544l-3.022,6.886h-8.905l-9.216,21h-8.733l9.216-21h-8.905L17.968,16.343z"/>
		<path d="M23.731,44.782h-9.943l9.217-21H14.1l3.507-7.992H45.36l-3.508,7.992h-8.905L23.731,44.782z M15.484,43.675h7.522
			l9.215-21h8.906l2.537-5.78H18.332l-2.537,5.78H24.7L15.484,43.675z"/>
		<g>
			<path d="M39.889,30.305c1.998-4.552,4.838-8.096,8.522-10.633c3.683-2.536,7.818-3.804,12.406-3.804
				c4.704,0,7.781,1.246,9.231,3.737c1.451,2.492,1.191,5.982-0.779,10.471c-1.43,3.259-3.159,5.933-5.186,8.018
				c-2.027,2.086-4.345,3.709-6.956,4.869c-2.61,1.161-5.483,1.741-8.619,1.741c-3.187,0-5.605-0.501-7.253-1.503
				c-1.649-1.001-2.646-2.586-2.992-4.755C37.916,36.278,38.458,33.564,39.889,30.305z M48.604,30.343
				c-1.235,2.815-1.593,4.837-1.072,6.067s1.693,1.845,3.518,1.845c1.875,0,3.592-0.602,5.149-1.806
				c1.557-1.205,3.02-3.368,4.389-6.487c1.152-2.625,1.457-4.542,0.916-5.754c-0.542-1.21-1.731-1.816-3.569-1.816
				c-1.761,0-3.444,0.615-5.051,1.845C51.276,25.467,49.851,27.502,48.604,30.343z"/>
			<path d="M48.508,45.258c-3.275,0-5.813-0.533-7.542-1.584c-1.786-1.084-2.879-2.814-3.251-5.14
				c-0.362-2.264,0.199-5.107,1.666-8.451c2.031-4.626,4.963-8.282,8.714-10.866c3.761-2.589,8.041-3.901,12.721-3.901
				c4.894,0,8.161,1.349,9.711,4.013c1.538,2.641,1.285,6.333-0.75,10.972c-1.451,3.303-3.232,6.055-5.296,8.18
				c-2.067,2.126-4.466,3.805-7.128,4.99C54.683,44.656,51.707,45.258,48.508,45.258z M60.816,16.421
				c-4.451,0-8.52,1.247-12.091,3.706c-3.58,2.465-6.382,5.964-8.329,10.4c-1.381,3.146-1.915,5.781-1.587,7.832
				c0.322,2.019,1.217,3.449,2.734,4.37c1.552,0.944,3.896,1.423,6.964,1.423c3.042,0,5.867-0.57,8.393-1.693
				c2.534-1.126,4.816-2.724,6.784-4.749c1.972-2.029,3.68-4.672,5.077-7.855c1.885-4.297,2.157-7.652,0.807-9.972
				C68.231,17.585,65.287,16.421,60.816,16.421z M51.049,38.809c-2.061,0-3.416-0.734-4.028-2.183
				c-0.588-1.389-0.236-3.516,1.075-6.504c1.279-2.915,2.777-5.042,4.45-6.324c1.698-1.3,3.511-1.959,5.388-1.959
				c2.067,0,3.438,0.721,4.075,2.144c0.613,1.374,0.314,3.402-0.915,6.201c-1.4,3.19-2.933,5.445-4.557,6.702
				C54.889,38.162,53.042,38.809,51.049,38.809z M57.934,22.945c-1.627,0-3.214,0.583-4.713,1.731
				c-1.523,1.166-2.906,3.147-4.109,5.889c-1.453,3.31-1.384,4.889-1.07,5.631c0.43,1.014,1.413,1.507,3.008,1.507
				c1.742,0,3.36-0.568,4.81-1.691c1.475-1.142,2.896-3.251,4.221-6.271c1.082-2.464,1.39-4.25,0.917-5.308
				C60.548,23.432,59.547,22.945,57.934,22.945z"/>
		</g>
		<g>
			<path d="M70.288,35.003l8.533-0.514c-0.405,1.331-0.483,2.346-0.237,3.043c0.404,1.129,1.442,1.693,3.113,1.693
				c1.247,0,2.334-0.288,3.262-0.865s1.559-1.246,1.893-2.007c0.318-0.722,0.28-1.369-0.112-1.939
				c-0.393-0.571-1.646-1.11-3.763-1.618c-3.457-0.849-5.692-1.978-6.707-3.386c-1.028-1.407-1.063-3.201-0.104-5.383
				c0.629-1.434,1.644-2.786,3.045-4.062c1.4-1.274,3.106-2.275,5.116-3.005c2.009-0.729,4.486-1.093,7.429-1.093
				c3.611,0,6.074,0.663,7.388,1.988c1.313,1.325,1.517,3.433,0.606,6.324l-8.439,0.476c0.332-1.255,0.274-2.168-0.176-2.739
				c-0.45-0.571-1.292-0.856-2.525-0.856c-1.015,0-1.873,0.212-2.573,0.637c-0.701,0.425-1.184,0.941-1.451,1.55
				c-0.195,0.444-0.159,0.843,0.109,1.198c0.25,0.369,1.077,0.711,2.479,1.027c3.46,0.812,5.833,1.633,7.121,2.464
				c1.287,0.83,2.036,1.86,2.248,3.091c0.211,1.229-0.016,2.605-0.684,4.127c-0.785,1.789-2.01,3.438-3.674,4.946
				c-1.666,1.509-3.568,2.653-5.709,3.434c-2.141,0.779-4.581,1.17-7.318,1.17c-4.806,0-7.733-0.914-8.783-2.739
				C69.325,40.139,69.296,37.819,70.288,35.003z"/>
			<path d="M79.157,45.258c-5.068,0-8.097-0.987-9.264-3.018c-1.128-1.963-1.171-4.459-0.128-7.42l0.122-0.347l9.696-0.583
				l-0.231,0.76c-0.458,1.507-0.385,2.3-0.245,2.699c0.117,0.325,0.474,1.324,2.59,1.324c1.136,0,2.134-0.263,2.968-0.782
				c0.827-0.514,1.392-1.106,1.678-1.759c0.241-0.548,0.221-0.995-0.061-1.405c-0.141-0.205-0.758-0.75-3.435-1.392
				c-3.626-0.891-5.923-2.069-7.027-3.601c-1.145-1.567-1.201-3.563-0.162-5.928c0.657-1.498,1.727-2.927,3.179-4.248
				c1.448-1.317,3.231-2.366,5.3-3.116c2.062-0.749,4.625-1.127,7.619-1.127c3.8,0,6.345,0.703,7.782,2.15
				c1.463,1.478,1.712,3.792,0.741,6.88l-0.114,0.366l-9.584,0.54l0.195-0.736c0.28-1.059,0.254-1.838-0.076-2.256
				c-0.337-0.428-1.041-0.645-2.09-0.645c-0.908,0-1.677,0.187-2.286,0.557c-0.606,0.367-1.009,0.792-1.231,1.299
				c-0.143,0.325-0.063,0.501,0.044,0.644l0.017,0.023c0.025,0.038,0.304,0.383,2.142,0.797c3.561,0.835,5.947,1.666,7.299,2.539
				c1.417,0.914,2.255,2.079,2.494,3.462c0.229,1.333-0.014,2.828-0.723,4.443c-0.813,1.852-2.094,3.579-3.809,5.133
				c-1.71,1.551-3.693,2.742-5.892,3.544C84.472,44.853,81.946,45.258,79.157,45.258z M70.693,35.533
				c-0.811,2.489-0.757,4.559,0.162,6.157c0.938,1.633,3.731,2.462,8.302,2.462c2.659,0,5.057-0.383,7.128-1.137
				c2.063-0.751,3.922-1.87,5.525-3.323c1.599-1.45,2.79-3.05,3.54-4.758c0.62-1.413,0.837-2.696,0.645-3.812
				c-0.186-1.081-0.842-1.97-2.003-2.72c-1.227-0.792-3.563-1.596-6.946-2.389c-1.586-0.358-2.453-0.742-2.803-1.243
				c-0.384-0.515-0.441-1.118-0.167-1.743c0.313-0.712,0.875-1.318,1.672-1.801c0.784-0.477,1.747-0.718,2.861-0.718
				c1.406,0,2.402,0.358,2.961,1.066c0.468,0.594,0.612,1.412,0.436,2.488l7.326-0.413c0.711-2.479,0.516-4.296-0.583-5.405
				c-1.2-1.21-3.553-1.823-6.994-1.823c-2.864,0-5.3,0.356-7.239,1.06c-1.934,0.702-3.593,1.676-4.933,2.895
				c-1.336,1.216-2.316,2.52-2.91,3.875c-0.881,2.006-0.866,3.587,0.044,4.835c0.933,1.294,3.083,2.361,6.392,3.174
				c3.027,0.726,3.782,1.398,4.086,1.841c0.499,0.726,0.555,1.582,0.163,2.475c-0.378,0.862-1.086,1.62-2.106,2.254
				c-1.013,0.63-2.209,0.95-3.555,0.95c-1.921,0-3.145-0.692-3.634-2.06c-0.237-0.673-0.231-1.538,0.023-2.632L70.693,35.533z"/>
		</g>
		<g>
			<path d="M126.899,16.343h8.713l-7.292,16.614c-0.724,1.648-1.667,3.204-2.83,4.667c-1.163,1.464-2.541,2.744-4.133,3.84
				c-1.593,1.096-3.097,1.866-4.512,2.309c-1.969,0.621-4.142,0.932-6.52,0.932c-1.375,0-2.834-0.096-4.375-0.286
				c-1.542-0.189-2.736-0.566-3.581-1.131c-0.845-0.563-1.493-1.365-1.942-2.404c-0.451-1.039-0.601-2.11-0.451-3.213
				c0.239-1.774,0.659-3.344,1.26-4.714l7.291-16.614h8.713l-7.465,17.009c-0.667,1.521-0.762,2.709-0.283,3.564
				s1.478,1.282,2.994,1.282c1.503,0,2.867-0.42,4.092-1.264c1.223-0.842,2.175-2.036,2.854-3.583L126.899,16.343z"/>
			<path d="M110.327,45.258c-1.39,0-2.885-0.098-4.444-0.29c-1.623-0.2-2.908-0.611-3.821-1.221
				c-0.931-0.621-1.652-1.511-2.143-2.645c-0.488-1.128-0.653-2.308-0.491-3.506c0.245-1.817,0.682-3.453,1.301-4.862l7.437-16.945
				h9.923l-7.804,17.784c-0.592,1.347-0.695,2.38-0.307,3.072c0.372,0.664,1.216,0.999,2.51,0.999c1.382,0,2.652-0.392,3.777-1.166
				c1.132-0.779,2.028-1.907,2.661-3.349l7.61-17.34h9.923l-7.632,17.389c-0.739,1.685-1.715,3.295-2.901,4.788
				c-1.191,1.5-2.623,2.829-4.254,3.953c-1.63,1.122-3.199,1.923-4.66,2.381C114.999,44.935,112.749,45.258,110.327,45.258z
				 M108.891,16.896l-7.146,16.283c-0.577,1.315-0.987,2.851-1.218,4.566c-0.136,0.997,0.002,1.979,0.409,2.919
				c0.405,0.935,0.992,1.664,1.743,2.164c0.767,0.513,1.891,0.864,3.34,1.042c1.514,0.187,2.963,0.282,4.308,0.282
				c2.309,0,4.446-0.306,6.353-0.906c1.355-0.425,2.824-1.178,4.365-2.238c1.54-1.06,2.89-2.314,4.014-3.729
				c1.126-1.417,2.053-2.947,2.754-4.544l6.951-15.839h-7.503l-7.319,16.679c-0.716,1.634-1.743,2.917-3.046,3.816
				c-1.313,0.904-2.796,1.362-4.407,1.362c-1.726,0-2.896-0.527-3.478-1.565c-0.565-1.011-0.48-2.375,0.258-4.056l7.125-16.235
				H108.891z"/>
		</g>
		<g>
			<path d="M141.452,16.343h8.154l3.869,15.428l6.771-15.428h8.231L156.24,44.229h-8.231l-3.863-15.312l-6.72,15.312h-8.211
				L141.452,16.343z"/>
			<path d="M156.602,44.782h-9.025l-3.573-14.163l-6.215,14.163h-9.422L141.09,15.79h8.948l3.58,14.275l6.266-14.275h9.441
				L156.602,44.782z M148.44,43.675h7.437l11.752-26.78h-7.021l-7.277,16.58l-4.159-16.58h-7.358l-11.753,26.78h7.001l7.224-16.46
				L148.44,43.675z"/>
		</g>
	</g>
	<g>
		<path d="M87.493,53.239v-4.01h-1.436v-0.816h3.844v0.816H88.47v4.01H87.493z"/>
		<path d="M94.966,53.239h-1.062l-0.423-1.096h-1.933l-0.399,1.096h-1.036l1.883-4.826h1.033L94.966,53.239z M93.168,51.329
			l-0.667-1.791l-0.653,1.791H93.168z"/>
		<path d="M96.062,53.239v-4.826h2.055c0.517,0,0.893,0.043,1.126,0.13c0.234,0.086,0.422,0.24,0.563,0.462
			c0.141,0.222,0.212,0.476,0.212,0.76c0,0.362-0.107,0.662-0.32,0.897c-0.214,0.236-0.532,0.385-0.957,0.446
			c0.211,0.123,0.385,0.257,0.522,0.404c0.137,0.147,0.323,0.409,0.556,0.784l0.59,0.942h-1.168l-0.706-1.05
			c-0.251-0.375-0.422-0.612-0.515-0.71c-0.093-0.098-0.19-0.164-0.294-0.2s-0.267-0.054-0.491-0.054h-0.198v2.015H96.062z
			 M97.038,50.454h0.723c0.468,0,0.761-0.019,0.877-0.059c0.117-0.04,0.208-0.108,0.274-0.205c0.065-0.096,0.099-0.217,0.099-0.362
			c0-0.163-0.044-0.294-0.131-0.394c-0.087-0.099-0.209-0.162-0.367-0.188c-0.08-0.012-0.317-0.017-0.713-0.017h-0.762V50.454z"/>
		<path d="M101.482,53.239v-4.826h0.976v4.826H101.482z"/>
		<path d="M103.95,53.239v-4.826h1.461l0.878,3.292l0.868-3.292h1.465v4.826h-0.908v-3.799l-0.96,3.799h-0.94l-0.957-3.799v3.799
			H103.95z"/>
		<path d="M112.605,53.239v-4.826h1.461l0.878,3.292l0.867-3.292h1.465v4.826h-0.908v-3.799l-0.959,3.799h-0.941l-0.957-3.799v3.799
			H112.605z"/>
		<path d="M123.182,53.239h-1.063l-0.422-1.096h-1.933l-0.399,1.096h-1.036l1.884-4.826h1.033L123.182,53.239z M121.384,51.329
			l-0.667-1.791l-0.653,1.791H121.384z"/>
		<path d="M124.287,53.239v-4.826h0.977v2.144l1.973-2.144h1.313l-1.821,1.879l1.92,2.947h-1.264l-1.33-2.265l-0.792,0.807v1.458
			H124.287z"/>
		<path d="M129.699,53.239v-4.826h0.976v4.826H129.699z M129.735,48.136V47.26h0.911v0.876H129.735z"/>
		<path d="M132.19,53.239v-4.826h0.95l1.979,3.223v-3.223h0.907v4.826h-0.979l-1.95-3.147v3.147H132.19z"/>
		<path d="M141.995,53.239h-1.063l-0.422-1.096h-1.934l-0.399,1.096h-1.036l1.883-4.826h1.033L141.995,53.239z M140.197,51.329
			l-0.666-1.791l-0.653,1.791H140.197z"/>
		<path d="M143.113,53.239v-4.787h0.977v3.974h2.427v0.813H143.113z"/>
		<path d="M152.15,53.239h-1.063l-0.422-1.096h-1.933l-0.4,1.096h-1.036l1.883-4.826h1.033L152.15,53.239z M150.353,51.329
			l-0.666-1.791l-0.653,1.791H150.353z"/>
		<path d="M153.246,53.239v-4.826h2.055c0.518,0,0.893,0.043,1.127,0.13c0.234,0.086,0.421,0.24,0.563,0.462
			c0.14,0.222,0.211,0.476,0.211,0.76c0,0.362-0.107,0.662-0.32,0.897c-0.213,0.236-0.532,0.385-0.957,0.446
			c0.212,0.123,0.386,0.257,0.523,0.404c0.138,0.147,0.323,0.409,0.557,0.784l0.59,0.942h-1.167l-0.706-1.05
			c-0.251-0.375-0.423-0.612-0.515-0.71c-0.093-0.098-0.19-0.164-0.294-0.2s-0.268-0.054-0.492-0.054h-0.198v2.015H153.246z
			 M154.223,50.454h0.722c0.468,0,0.761-0.019,0.878-0.059c0.115-0.04,0.208-0.108,0.273-0.205c0.066-0.096,0.1-0.217,0.1-0.362
			c0-0.163-0.043-0.294-0.131-0.394c-0.087-0.099-0.209-0.162-0.368-0.188c-0.079-0.012-0.317-0.017-0.712-0.017h-0.762V50.454z"/>
		<path d="M158.667,53.239v-4.826h0.977v4.826H158.667z"/>
	</g>
	<path fill="#E20A16" d="M167.663,31.581c0,0,13.198-9.484,12.292-18.521c-0.906-9.038-10.699-12.956-27.454-13.047
		C135.746-0.077,99.175,9,90.813,12h7.979c0,0,13.958-4.598,43.809-7.128c15.633-1.326,25.115,1.351,27.997,4.917
		C170.598,9.789,179.289,16.594,167.663,31.581z"/>
	<path fill="#E20A16" d="M12.052,26.763c0,0-13.753,15.993-1.376,23.404c12.377,7.412,31.589,4.609,31.589,4.609
		s22.245-2.442,32.786-6.313h6.563c0,0-22.071,8.602-40.964,10.458c-4.598,0.452-12.622,1.61-19.979,0.781
		c-6.88-0.776-11.73-2.152-15.102-4.844C0.778,51.032-6.642,40.924,12.052,26.763z"/>
</g>
</svg>
